<?xml version="1.0" standalone="no"?>
<!DOCTYPE svg PUBLIC "-//W3C//DTD SVG 20010904//EN"
 "http://www.w3.org/TR/2001/REC-SVG-20010904/DTD/svg10.dtd">
<svg version="1.0" xmlns="http://www.w3.org/2000/svg"
 width="1024.000000pt" height="1024.000000pt" viewBox="0 0 1024.000000 1024.000000"
 preserveAspectRatio="xMidYMid meet">

<g transform="translate(0.000000,1024.000000) scale(0.100000,-0.100000)"
fill="#000000" stroke="none">
<path d="M5390 4675 c-1 -5 -5 -48 -10 -95 -10 -87 -24 -202 -41 -325 -5 -38
-12 -94 -15 -122 -3 -29 -10 -53 -15 -53 -5 0 -9 -11 -9 -25 0 -14 -4 -34 -10
-45 -6 -11 -14 -29 -20 -40 -6 -11 -10 -27 -10 -35 0 -8 -4 -24 -10 -35 -5
-11 -14 -29 -20 -40 -5 -11 -10 -27 -10 -35 0 -8 -4 -15 -10 -15 -5 0 -10 -20
-10 -44 0 -25 5 -48 10 -51 6 -3 10 -15 10 -26 0 -10 4 -19 9 -19 5 0 11 -9
14 -20 7 -27 24 -25 32 3 3 12 10 31 15 42 4 11 18 47 30 80 12 33 26 68 31
77 5 10 9 22 9 28 0 6 10 32 21 58 41 91 48 107 64 156 24 70 23 84 -15 291
-5 28 -12 91 -15 140 -5 82 -20 174 -25 150z"/>
</g>
</svg>
